<?xml version="1.0" encoding="UTF-8"?>
<svg version="1.1" viewBox="0 0 1000 1000" xmlns="http://www.w3.org/2000/svg">
<path transform="translate(0)" d="m0 0h1e3v1e3h-1e3v-1e3z" fill="#FEFEFE"/>
<path transform="translate(499.61 399.92)" d="m0 0c0.78891 0.68707 1.5778 1.3741 2.3906 2.082 0.80953 0.67676 1.6191 1.3535 2.4531 2.0508 11.947 10.275 20.513 21.917 27.547 35.949 0.5659 1.1189 1.1318 2.2378 1.7148 3.3906 15.18 32.601 15.71 75.771 3.9727 109.36-6.3268 17.074-15.203 30.988-27.688 44.25-0.53883 0.60328-1.0777 1.2066-1.6328 1.8281-16.095 17.308-40.766 28.094-64.094 29.377-3.9058 0.097789-7.8042 0.1173-11.711 0.10767-1.3026 0.016113-2.6052 0.032227-3.9473 0.048828-28.319 0.014096-51.375-12.308-71.615-31.361-0.60328-0.53883-1.2066-1.0777-1.8281-1.6328-19.312-17.958-28.665-44.902-32.172-70.367-0.19723-1.3709-0.19723-1.3709-0.39844-2.7695-4.0269-34.555 2.2111-71.829 23.031-100.25 11.348-14.288 24.101-25.638 40.367-33.98 0.93586-0.48211 1.8717-0.96422 2.8359-1.4609 34.406-16.648 81.458-11.35 110.77 13.379z" fill="#010101"/>
<path transform="translate(922.65 396.16)" d="m0 0c19.95 17.434 29.329 39.339 34.352 64.836 0.2475 1.2401 0.495 2.4802 0.75 3.7578 1.3356 8.1437 1.4462 16.254 1.5 24.492 0.014139 1.6342 0.014139 1.6342 0.028564 3.3015-0.00427 1.0607-0.00854 2.1213-0.012939 3.2141-0.0022559 0.93618-0.0045117 1.8724-0.0068359 2.8369-0.36896 4.8438-1.3898 9.618-2.2588 14.397h-161c1.4295 14.892 1.4295 14.892 5 29 0.34934 1.0454 0.69867 2.0909 1.0586 3.168 4.3509 12.168 10.924 21.641 19.941 30.832 0.60199 0.62648 1.204 1.253 1.8242 1.8984 15.268 14.639 36.573 18.598 56.949 18.305 19.115-0.56894 37.304-7.8468 53.227-18.203 2.8647 2.6819 4.9043 5.2276 6.7969 8.6602 0.7251 1.3139 0.7251 1.3139 1.4648 2.6543 0.49113 0.90686 0.98227 1.8137 1.4883 2.748 0.5066 0.91072 1.0132 1.8214 1.5352 2.7598 3.7148 6.7939 3.7148 6.7939 3.7148 10.178-33.933 19.831-71.427 30.322-110.43 20.382-27.05-7.6147-51.678-25.745-65.825-50.257-7.1393-12.908-11.401-25.85-14.75-40.125-0.35578-1.5082-0.35578-1.5082-0.71875-3.0469-3.7849-17.478-3.4073-36.416-0.28125-53.953 0.13422-0.78262 0.26845-1.5652 0.40674-2.3716 1.8528-10.668 4.0758-20.723 8.5933-30.628 0.50273-1.1254 1.0055-2.2507 1.5234-3.4102 12.994-27.543 35.948-48.939 64.477-59.59 28.856-10.32 66.758-5.3568 90.648 14.164z" fill="#020202"/>
<path transform="translate(237,392)" d="m0 0c16.683 13.122 22.811 36.023 25.586 56.032 0.73943 7.0809 0.67528 14.143 0.64142 21.255-5.6558e-4 1.6868-2.4469e-4 3.3735 8.8501e-4 5.0603 5.6879e-4 4.5342-0.011108 9.0683-0.025148 13.602-0.012587 4.7552-0.013684 9.5104-0.016051 14.266-0.0061915 8.9846-0.02257 17.969-0.042699 26.954-0.022432 10.237-0.033371 20.474-0.043391 30.711-0.020849 21.04-0.057496 42.08-0.10065 63.12h-40c-0.021874-6.969-0.021874-6.969-0.044189-14.079-0.050518-15.415-0.117-30.829-0.19153-46.244-0.044767-9.3385-0.084224-18.677-0.11072-28.015-0.023136-8.1493-0.056705-16.299-0.10227-24.448-0.023724-4.306-0.042588-8.6119-0.048912-12.918 1.5725-39.221 1.5725-39.221-14.502-73.296-9.7693-9.0656-21.355-10.335-34.25-10.152-4.796 0.19484-9.1403 0.84069-13.75 2.1523-1.2684 0.34998-1.2684 0.34998-2.5625 0.70703-15.819 5.0353-29.835 17.048-41.07 28.953-1.3672 1.3398-1.3672 1.3398-4.3672 3.3398-0.46629 3.1072-0.46629 3.1072-0.39873 6.8462-0.0066468 0.71225-0.013294 1.4245-0.020142 2.1583-0.018727 2.3985-0.016018 4.7966-0.013504 7.1952-0.0090113 1.7146-0.019337 3.4291-0.030884 5.1437-0.027671 4.665-0.036868 9.33-0.042854 13.995-0.0093576 4.8714-0.035559 9.7428-0.060005 14.614-0.043741 9.2293-0.072241 18.459-0.095323 27.688-0.027011 10.505-0.070925 21.011-0.11629 31.516-0.092955 21.614-0.16235 43.229-0.22227 64.844h-39v-239h33l1.5 14.188c0.15662 1.4685 0.31324 2.937 0.47461 4.45 0.12182 1.1651 0.24363 2.3301 0.36914 3.5305 0.12568 1.1888 0.25137 2.3775 0.38086 3.6023 0.23594 2.7671 0.33028 5.4555 0.27539 8.2297 0.43828-0.3893 0.87656-0.77859 1.3281-1.1797 2.2134-1.9525 4.4415-3.8873 6.6719-5.8203 0.88301-0.77215 1.766-1.5443 2.6758-2.3398 12.241-10.485 25.467-19.313 40.324-25.66 0.63535-0.27248 1.2707-0.54495 1.9253-0.82568 24.287-9.8919 55.165-5.6543 76.075 9.8257z"/>
<path transform="translate(467.94 420.31)" d="m0 0c17.478 11.949 28.709 32.189 33.062 52.688 1.85 10.625 2.4048 21.055 2.375 31.812-5.4382e-4 0.74385-0.0010876 1.4877-0.001648 2.2541-0.038219 11.395-0.72538 22.069-4.3734 32.933-0.21962 0.68643-0.43925 1.3729-0.66553 2.0801-6.156 18.943-16.748 35.691-34.334 45.92-16.655 7.7069-33.905 9.7632-51.574 4.3164-17.535-6.738-30.633-20.279-38.277-37.262-1.5366-3.6364-2.8683-7.3206-4.1484-11.055-0.31582-0.90492-0.63164-1.8098-0.95703-2.7422-3.6597-11.286-4.3695-22.531-4.3037-34.293 0.010678-2.264 6.656e-5 -4.5273-0.012695-6.7913-0.013877-12.596 0.6577-25.193 4.8984-37.174 0.25797-0.74637 0.51595-1.4927 0.78174-2.2617 4.2194-11.73 10.086-22.545 18.593-31.738 0.961-1.0422 0.961-1.0422 1.9414-2.1055 20.957-20.559 52.752-20.855 76.996-6.582z" fill="#FEFEFE"/>
<path transform="translate(621,316)" d="m0 0h34v68h64v32h-64c0.11979 25.681 0.11979 25.681 0.25781 51.361 0.060353 10.477 0.11872 20.954 0.16406 31.431 0.033033 7.6314 0.072926 15.263 0.12092 22.894 0.025153 4.0374 0.046967 8.0747 0.060554 12.112 0.012923 3.8077 0.035084 7.6152 0.064039 11.423 0.0089968 1.3902 0.014747 2.7805 0.01683 4.1707 0.023929 13.556 0.96355 26.638 9.9134 37.557 1.7127 1.6074 3.3972 2.8299 5.4023 4.0508 0.99 0.61488 0.99 0.61488 2 1.2422 11.058 5.5673 25.12 3.8159 36.5 0.19531 1.3858-0.4793 2.7713-0.95968 4.1562-1.4414 3.3438-0.99609 3.3438-0.99609 6.3438 0.0039062 0.76782 1.8066 0.76782 1.8066 1.3164 4.1562 0.20689 0.85852 0.41379 1.717 0.62695 2.6016 0.30647 1.3574 0.30647 1.3574 0.61914 2.7422 0.20818 0.87398 0.41637 1.748 0.63086 2.6484 1.3262 5.6041 2.5665 11.228 3.8066 16.852-25.142 9.2591-55.094 13.304-80.25 2-15.505-8.4173-22.851-21.565-28.125-37.812-3.1752-10.757-3.912-21.126-3.8521-32.298 5.6536e-4 -1.4893 2.4513e-4 -2.9786-8.8501e-4 -4.4679-5.6966e-4 -4.0096 0.011121-8.0191 0.025148-12.029 0.012572-4.2027 0.013683-8.4054 0.016051-12.608 0.0061957-7.9435 0.022581-15.887 0.042699-23.83 0.022419-9.0497 0.033367-18.099 0.043391-27.149 0.020859-18.602 0.057511-37.204 0.10065-55.806h-36v-31l37-2c1.5072-17.859 1.5072-17.859 2.5-35.75 0.42672-10.466 1.4367-20.829 2.5-31.25z" fill="#010101"/>
<path transform="translate(898.51 419.11)" d="m0 0c13.772 10.469 20.979 25.846 23.742 42.707 0.76801 7.3601 0.75 14.787 0.75 22.188h-128c1.1798-14.158 1.1798-14.158 3.0625-20.312 0.21479-0.71221 0.42958-1.4244 0.65088-2.1582 3.595-11.251 9.4264-21.696 17.287-30.529 0.54141-0.61102 1.0828-1.222 1.6406-1.8516 20.463-21.706 55.914-27.221 80.867-10.043z" fill="#FDFDFD"/>
</svg>
